<svg xmlns="http://www.w3.org/2000/svg" width="2240" height="680" viewBox="0 0 2240 680">
<rect width="100%" height="100%" fill="#f8fafc"/>
<text x="80" y="30" font-family="Arial" font-size="18" font-weight="700" fill="#111827">15m BOS | ETH-USDT-SWAP:1720195200000:long:strict_shallow_pullback_v2_balanced</text>
<text x="80" y="52" font-family="Arial" font-size="12" fill="#475569">LONG | signal=2024-07-06 00:45 UTC | entry=2024-07-06 01:00 UTC | exit=n/a | </text>
<rect x="80" y="64" width="1910" height="530" fill="#ffffff" stroke="#cbd5e1"/>
<rect x="80" y="518.13" width="1910" height="14.46" fill="#dbeafe" opacity="0.65" data-zone-band="true"/>
<line x1="80" y1="594.00" x2="1990" y2="594.00" stroke="#e2e8f0"/>
<text x="72" y="598.00" text-anchor="end" font-family="Arial" font-size="11" fill="#64748b">2910.79</text>
<line x1="80" y1="488.00" x2="1990" y2="488.00" stroke="#e2e8f0"/>
<text x="72" y="492.00" text-anchor="end" font-family="Arial" font-size="11" fill="#64748b">2953.18</text>
<line x1="80" y1="382.00" x2="1990" y2="382.00" stroke="#e2e8f0"/>
<text x="72" y="386.00" text-anchor="end" font-family="Arial" font-size="11" fill="#64748b">2995.57</text>
<line x1="80" y1="276.00" x2="1990" y2="276.00" stroke="#e2e8f0"/>
<text x="72" y="280.00" text-anchor="end" font-family="Arial" font-size="11" fill="#64748b">3037.97</text>
<line x1="80" y1="170.00" x2="1990" y2="170.00" stroke="#e2e8f0"/>
<text x="72" y="174.00" text-anchor="end" font-family="Arial" font-size="11" fill="#64748b">3080.36</text>
<line x1="80" y1="64.00" x2="1990" y2="64.00" stroke="#e2e8f0"/>
<text x="72" y="68.00" text-anchor="end" font-family="Arial" font-size="11" fill="#64748b">3122.75</text>
<line x1="80.00" y1="379.83" x2="80.00" y2="430.47" stroke="#dc2626" stroke-width="1.4"/>
<rect x="71.00" y="391.43" width="18.00" height="17.98" fill="#dc2626" opacity="0.85"/>
<line x1="117.45" y1="364.21" x2="117.45" y2="421.41" stroke="#dc2626" stroke-width="1.4"/>
<rect x="108.45" y="409.41" width="18.00" height="2.25" fill="#dc2626" opacity="0.85"/>
<line x1="154.90" y1="409.44" x2="154.90" y2="442.57" stroke="#dc2626" stroke-width="1.4"/>
<rect x="145.90" y="411.64" width="18.00" height="26.88" fill="#dc2626" opacity="0.85"/>
<line x1="192.35" y1="424.26" x2="192.35" y2="468.62" stroke="#dc2626" stroke-width="1.4"/>
<rect x="183.35" y="438.54" width="18.00" height="13.58" fill="#dc2626" opacity="0.85"/>
<line x1="229.80" y1="425.94" x2="229.80" y2="466.77" stroke="#16a34a" stroke-width="1.4"/>
<rect x="220.80" y="425.99" width="18.00" height="26.10" fill="#16a34a" opacity="0.85"/>
<line x1="267.25" y1="389.11" x2="267.25" y2="426.52" stroke="#16a34a" stroke-width="1.4"/>
<rect x="258.25" y="404.89" width="18.00" height="21.08" fill="#16a34a" opacity="0.85"/>
<line x1="304.71" y1="384.13" x2="304.71" y2="423.11" stroke="#dc2626" stroke-width="1.4"/>
<rect x="295.71" y="404.96" width="18.00" height="2.55" fill="#dc2626" opacity="0.85"/>
<line x1="342.16" y1="376.81" x2="342.16" y2="410.81" stroke="#16a34a" stroke-width="1.4"/>
<rect x="333.16" y="393.49" width="18.00" height="14.45" fill="#16a34a" opacity="0.85"/>
<line x1="379.61" y1="386.91" x2="379.61" y2="445.94" stroke="#dc2626" stroke-width="1.4"/>
<rect x="370.61" y="393.49" width="18.00" height="46.81" fill="#dc2626" opacity="0.85"/>
<line x1="417.06" y1="406.01" x2="417.06" y2="475.90" stroke="#16a34a" stroke-width="1.4"/>
<rect x="408.06" y="420.71" width="18.00" height="19.50" fill="#16a34a" opacity="0.85"/>
<line x1="454.51" y1="389.21" x2="454.51" y2="424.39" stroke="#16a34a" stroke-width="1.4"/>
<rect x="445.51" y="409.49" width="18.00" height="10.45" fill="#16a34a" opacity="0.85"/>
<line x1="491.96" y1="379.56" x2="491.96" y2="411.84" stroke="#16a34a" stroke-width="1.4"/>
<rect x="482.96" y="387.53" width="18.00" height="21.55" fill="#16a34a" opacity="0.85"/>
<line x1="529.41" y1="382.18" x2="529.41" y2="417.14" stroke="#dc2626" stroke-width="1.4"/>
<rect x="520.41" y="387.53" width="18.00" height="21.65" fill="#dc2626" opacity="0.85"/>
<line x1="566.86" y1="378.33" x2="566.86" y2="420.56" stroke="#16a34a" stroke-width="1.4"/>
<rect x="557.86" y="384.06" width="18.00" height="25.13" fill="#16a34a" opacity="0.85"/>
<line x1="604.31" y1="382.46" x2="604.31" y2="409.56" stroke="#dc2626" stroke-width="1.4"/>
<rect x="595.31" y="384.06" width="18.00" height="9.33" fill="#dc2626" opacity="0.85"/>
<line x1="641.76" y1="386.21" x2="641.76" y2="417.24" stroke="#dc2626" stroke-width="1.4"/>
<rect x="632.76" y="393.69" width="18.00" height="5.80" fill="#dc2626" opacity="0.85"/>
<line x1="679.22" y1="398.26" x2="679.22" y2="431.92" stroke="#dc2626" stroke-width="1.4"/>
<rect x="670.22" y="399.71" width="18.00" height="31.73" fill="#dc2626" opacity="0.85"/>
<line x1="716.67" y1="429.44" x2="716.67" y2="450.94" stroke="#dc2626" stroke-width="1.4"/>
<rect x="707.67" y="431.69" width="18.00" height="13.30" fill="#dc2626" opacity="0.85"/>
<line x1="754.12" y1="439.42" x2="754.12" y2="461.90" stroke="#dc2626" stroke-width="1.4"/>
<rect x="745.12" y="444.97" width="18.00" height="7.55" fill="#dc2626" opacity="0.85"/>
<line x1="791.57" y1="430.07" x2="791.57" y2="451.47" stroke="#16a34a" stroke-width="1.4"/>
<rect x="782.57" y="434.62" width="18.00" height="16.83" fill="#16a34a" opacity="0.85"/>
<line x1="829.02" y1="419.04" x2="829.02" y2="438.19" stroke="#16a34a" stroke-width="1.4"/>
<rect x="820.02" y="419.04" width="18.00" height="15.55" fill="#16a34a" opacity="0.85"/>
<line x1="866.47" y1="412.39" x2="866.47" y2="445.94" stroke="#dc2626" stroke-width="1.4"/>
<rect x="857.47" y="419.04" width="18.00" height="20.90" fill="#dc2626" opacity="0.85"/>
<line x1="903.92" y1="398.74" x2="903.92" y2="439.89" stroke="#16a34a" stroke-width="1.4"/>
<rect x="894.92" y="424.39" width="18.00" height="15.50" fill="#16a34a" opacity="0.85"/>
<line x1="941.37" y1="401.69" x2="941.37" y2="427.09" stroke="#dc2626" stroke-width="1.4"/>
<rect x="932.37" y="424.36" width="18.00" height="1.48" fill="#dc2626" opacity="0.85"/>
<line x1="978.82" y1="421.91" x2="978.82" y2="454.47" stroke="#dc2626" stroke-width="1.4"/>
<rect x="969.82" y="425.92" width="18.00" height="8.88" fill="#dc2626" opacity="0.85"/>
<line x1="1016.27" y1="397.46" x2="1016.27" y2="434.77" stroke="#16a34a" stroke-width="1.4"/>
<rect x="1007.27" y="401.94" width="18.00" height="32.83" fill="#16a34a" opacity="0.85"/>
<line x1="1053.73" y1="397.91" x2="1053.73" y2="420.16" stroke="#dc2626" stroke-width="1.4"/>
<rect x="1044.73" y="401.94" width="18.00" height="16.65" fill="#dc2626" opacity="0.85"/>
<line x1="1091.18" y1="405.24" x2="1091.18" y2="438.14" stroke="#dc2626" stroke-width="1.4"/>
<rect x="1082.18" y="418.94" width="18.00" height="7.48" fill="#dc2626" opacity="0.85"/>
<line x1="1128.63" y1="399.86" x2="1128.63" y2="430.94" stroke="#16a34a" stroke-width="1.4"/>
<rect x="1119.63" y="399.86" width="18.00" height="26.55" fill="#16a34a" opacity="0.85"/>
<line x1="1166.08" y1="388.81" x2="1166.08" y2="415.36" stroke="#16a34a" stroke-width="1.4"/>
<rect x="1157.08" y="393.61" width="18.00" height="6.08" fill="#16a34a" opacity="0.85"/>
<line x1="1203.53" y1="386.88" x2="1203.53" y2="409.54" stroke="#dc2626" stroke-width="1.4"/>
<rect x="1194.53" y="393.61" width="18.00" height="1.00" fill="#dc2626" opacity="0.85"/>
<line x1="1240.98" y1="388.18" x2="1240.98" y2="421.84" stroke="#dc2626" stroke-width="1.4"/>
<rect x="1231.98" y="394.34" width="18.00" height="23.18" fill="#dc2626" opacity="0.85"/>
<line x1="1278.43" y1="403.54" x2="1278.43" y2="445.57" stroke="#dc2626" stroke-width="1.4"/>
<rect x="1269.43" y="417.11" width="18.00" height="15.25" fill="#dc2626" opacity="0.85"/>
<line x1="1315.88" y1="408.46" x2="1315.88" y2="442.94" stroke="#16a34a" stroke-width="1.4"/>
<rect x="1306.88" y="414.09" width="18.00" height="18.30" fill="#16a34a" opacity="0.85"/>
<line x1="1353.33" y1="301.52" x2="1353.33" y2="418.49" stroke="#16a34a" stroke-width="1.4"/>
<rect x="1344.33" y="329.00" width="18.00" height="84.76" fill="#16a34a" opacity="0.85"/>
<line x1="1390.78" y1="325.92" x2="1390.78" y2="407.86" stroke="#dc2626" stroke-width="1.4"/>
<rect x="1381.78" y="329.00" width="18.00" height="73.29" fill="#dc2626" opacity="0.85"/>
<line x1="1428.24" y1="397.36" x2="1428.24" y2="442.49" stroke="#dc2626" stroke-width="1.4"/>
<rect x="1419.24" y="402.31" width="18.00" height="12.73" fill="#dc2626" opacity="0.85"/>
<line x1="1465.69" y1="409.14" x2="1465.69" y2="441.04" stroke="#dc2626" stroke-width="1.4"/>
<rect x="1456.69" y="415.04" width="18.00" height="19.53" fill="#dc2626" opacity="0.85"/>
<line x1="1503.14" y1="431.94" x2="1503.14" y2="468.45" stroke="#dc2626" stroke-width="1.4"/>
<rect x="1494.14" y="435.59" width="18.00" height="19.05" fill="#dc2626" opacity="0.85"/>
<line x1="1540.59" y1="446.04" x2="1540.59" y2="467.12" stroke="#dc2626" stroke-width="1.4"/>
<rect x="1531.59" y="454.64" width="18.00" height="9.55" fill="#dc2626" opacity="0.85"/>
<line x1="1578.04" y1="441.47" x2="1578.04" y2="485.40" stroke="#dc2626" stroke-width="1.4"/>
<rect x="1569.04" y="464.20" width="18.00" height="16.30" fill="#dc2626" opacity="0.85"/>
<line x1="1615.49" y1="436.14" x2="1615.49" y2="480.50" stroke="#16a34a" stroke-width="1.4"/>
<rect x="1606.49" y="444.79" width="18.00" height="35.71" fill="#16a34a" opacity="0.85"/>
<line x1="1652.94" y1="404.09" x2="1652.94" y2="445.94" stroke="#16a34a" stroke-width="1.4"/>
<rect x="1643.94" y="418.71" width="18.00" height="26.10" fill="#16a34a" opacity="0.85"/>
<line x1="1690.39" y1="407.66" x2="1690.39" y2="423.81" stroke="#dc2626" stroke-width="1.4"/>
<rect x="1681.39" y="418.71" width="18.00" height="1.58" fill="#dc2626" opacity="0.85"/>
<line x1="1727.84" y1="414.61" x2="1727.84" y2="432.99" stroke="#dc2626" stroke-width="1.4"/>
<rect x="1718.84" y="420.31" width="18.00" height="11.58" fill="#dc2626" opacity="0.85"/>
<line x1="1765.29" y1="409.29" x2="1765.29" y2="440.02" stroke="#dc2626" stroke-width="1.4"/>
<rect x="1756.29" y="431.89" width="18.00" height="2.00" fill="#dc2626" opacity="0.85"/>
<line x1="1802.75" y1="414.94" x2="1802.75" y2="444.59" stroke="#16a34a" stroke-width="1.4"/>
<rect x="1793.75" y="415.86" width="18.00" height="18.03" fill="#16a34a" opacity="0.85"/>
<line x1="1840.20" y1="410.01" x2="1840.20" y2="426.59" stroke="#dc2626" stroke-width="1.4"/>
<rect x="1831.20" y="415.86" width="18.00" height="3.35" fill="#dc2626" opacity="0.85"/>
<line x1="1877.65" y1="414.59" x2="1877.65" y2="443.49" stroke="#dc2626" stroke-width="1.4"/>
<rect x="1868.65" y="419.21" width="18.00" height="11.28" fill="#dc2626" opacity="0.85"/>
<line x1="1915.10" y1="428.47" x2="1915.10" y2="449.94" stroke="#dc2626" stroke-width="1.4"/>
<rect x="1906.10" y="430.17" width="18.00" height="9.38" fill="#dc2626" opacity="0.85"/>
<line x1="1952.55" y1="439.47" x2="1952.55" y2="462.02" stroke="#dc2626" stroke-width="1.4"/>
<rect x="1943.55" y="439.57" width="18.00" height="13.10" fill="#dc2626" opacity="0.85"/>
<line x1="1990.00" y1="446.29" x2="1990.00" y2="465.92" stroke="#dc2626" stroke-width="1.4"/>
<rect x="1981.00" y="452.67" width="18.00" height="10.78" fill="#dc2626" opacity="0.85"/>
<line x1="80" y1="329.00" x2="1990" y2="329.00" stroke="#0f766e" stroke-width="1.5" stroke-dasharray="6 4"/>
<text x="1998" y="333.00" font-family="Arial" font-size="11" fill="#0f766e">entry 3016.77</text>
<line x1="80" y1="557.45" x2="1990" y2="557.45" stroke="#dc2626" stroke-width="1.5" stroke-dasharray="6 4"/>
<text x="1998" y="561.45" font-family="Arial" font-size="11" fill="#dc2626">stop 2925.40</text>
<line x1="80" y1="100.55" x2="1990" y2="100.55" stroke="#16a34a" stroke-width="1.5" stroke-dasharray="6 4"/>
<text x="1998" y="104.55" font-family="Arial" font-size="11" fill="#16a34a">target 3108.14</text>
<line x1="679.22" y1="64" x2="679.22" y2="594" stroke="#64748b" stroke-width="1" stroke-dasharray="2 4" opacity="0.55" data-event-marker="trend"/>
<text x="683.22" y="78" font-family="Arial" font-size="10" fill="#64748b" data-event-marker="trend">trend</text>
<line x1="80.00" y1="64" x2="80.00" y2="594" stroke="#7c3aed" stroke-width="1" stroke-dasharray="2 4" opacity="0.55" data-event-marker="breakout"/>
<text x="84.00" y="78" font-family="Arial" font-size="10" fill="#7c3aed" data-event-marker="breakout">breakout</text>
<line x1="1278.43" y1="64" x2="1278.43" y2="594" stroke="#2563eb" stroke-width="1" stroke-dasharray="2 4" opacity="0.55" data-event-marker="pullback"/>
<text x="1282.43" y="78" font-family="Arial" font-size="10" fill="#2563eb" data-event-marker="pullback">pullback</text>
<line x1="1390.78" y1="64" x2="1390.78" y2="594" stroke="#0f766e" stroke-width="1" stroke-dasharray="2 4" opacity="0.55" data-event-marker="confirm"/>
<text x="1394.78" y="78" font-family="Arial" font-size="10" fill="#0f766e" data-event-marker="confirm">confirm</text>
<line x1="1390.78" y1="64" x2="1390.78" y2="594" stroke="#0f766e" stroke-width="1" stroke-dasharray="2 4" opacity="0.55" data-event-marker="signal"/>
<text x="1394.78" y="78" font-family="Arial" font-size="10" fill="#0f766e" data-event-marker="signal">signal</text>
<polygon points="1428.24,446.74 1421.94,457.54 1434.54,457.54" fill="#16a34a" stroke="#ffffff" stroke-width="1.2" data-trade-marker="entry"/>
<text x="80.00" y="636" text-anchor="middle" font-family="Arial" font-size="10" fill="#64748b">2024-07-05 16:00 UTC</text>
<text x="566.86" y="636" text-anchor="middle" font-family="Arial" font-size="10" fill="#64748b">2024-07-05 19:15 UTC</text>
<text x="1053.73" y="636" text-anchor="middle" font-family="Arial" font-size="10" fill="#64748b">2024-07-05 22:30 UTC</text>
<text x="1540.59" y="636" text-anchor="middle" font-family="Arial" font-size="10" fill="#64748b">2024-07-06 01:45 UTC</text>
<text x="1990.00" y="636" text-anchor="middle" font-family="Arial" font-size="10" fill="#64748b">2024-07-06 04:45 UTC</text>
<text x="2014" y="64" font-family="Arial" font-size="14" font-weight="700" fill="#111827">Trade</text>
<text x="2014" y="88" font-family="Arial" font-size="12" fill="#334155">candidate: ETH-USDT-SWAP:1720195200000:long:strict_shallow_pullback_v2_balanced</text>
<text x="2014" y="112" font-family="Arial" font-size="12" fill="#334155">trade: </text>
<text x="2014" y="136" font-family="Arial" font-size="12" fill="#334155">side: LONG</text>
<text x="2014" y="160" font-family="Arial" font-size="12" fill="#334155">exit: </text>
<text x="2014" y="184" font-family="Arial" font-size="12" fill="#334155">net_R: n/a</text>
<text x="2014" y="208" font-family="Arial" font-size="12" fill="#334155">MFE_R: n/a</text>
<text x="2014" y="232" font-family="Arial" font-size="12" fill="#334155">MAE_R: n/a</text>
</svg>