<svg xmlns="http://www.w3.org/2000/svg" width="2240" height="680" viewBox="0 0 2240 680">
<rect width="100%" height="100%" fill="#f8fafc"/>
<text x="80" y="30" font-family="Arial" font-size="18" font-weight="700" fill="#111827">15m BOS | BTC-USDT-SWAP:1721606400000:long:strict_shallow_pullback_v2_balanced</text>
<text x="80" y="52" font-family="Arial" font-size="12" fill="#475569">LONG | signal=2024-07-22 08:15 UTC | entry=2024-07-22 08:30 UTC | exit=n/a | </text>
<rect x="80" y="64" width="1910" height="530" fill="#ffffff" stroke="#cbd5e1"/>
<rect x="80" y="517.20" width="1910" height="22.80" fill="#dbeafe" opacity="0.65" data-zone-band="true"/>
<line x1="80" y1="594.00" x2="1990" y2="594.00" stroke="#e2e8f0"/>
<text x="72" y="598.00" text-anchor="end" font-family="Arial" font-size="11" fill="#64748b">66191.77</text>
<line x1="80" y1="488.00" x2="1990" y2="488.00" stroke="#e2e8f0"/>
<text x="72" y="492.00" text-anchor="end" font-family="Arial" font-size="11" fill="#64748b">66687.16</text>
<line x1="80" y1="382.00" x2="1990" y2="382.00" stroke="#e2e8f0"/>
<text x="72" y="386.00" text-anchor="end" font-family="Arial" font-size="11" fill="#64748b">67182.55</text>
<line x1="80" y1="276.00" x2="1990" y2="276.00" stroke="#e2e8f0"/>
<text x="72" y="280.00" text-anchor="end" font-family="Arial" font-size="11" fill="#64748b">67677.94</text>
<line x1="80" y1="170.00" x2="1990" y2="170.00" stroke="#e2e8f0"/>
<text x="72" y="174.00" text-anchor="end" font-family="Arial" font-size="11" fill="#64748b">68173.33</text>
<line x1="80" y1="64.00" x2="1990" y2="64.00" stroke="#e2e8f0"/>
<text x="72" y="68.00" text-anchor="end" font-family="Arial" font-size="11" fill="#64748b">68668.72</text>
<line x1="80.00" y1="144.84" x2="80.00" y2="181.37" stroke="#dc2626" stroke-width="1.4"/>
<rect x="71.00" y="170.67" width="18.00" height="10.61" fill="#dc2626" opacity="0.85"/>
<line x1="118.98" y1="153.60" x2="118.98" y2="199.64" stroke="#16a34a" stroke-width="1.4"/>
<rect x="109.98" y="158.73" width="18.00" height="22.55" fill="#16a34a" opacity="0.85"/>
<line x1="157.96" y1="128.99" x2="157.96" y2="163.97" stroke="#16a34a" stroke-width="1.4"/>
<rect x="148.96" y="129.84" width="18.00" height="28.86" fill="#16a34a" opacity="0.85"/>
<line x1="196.94" y1="100.55" x2="196.94" y2="177.13" stroke="#dc2626" stroke-width="1.4"/>
<rect x="187.94" y="129.84" width="18.00" height="36.01" fill="#dc2626" opacity="0.85"/>
<line x1="235.92" y1="157.38" x2="235.92" y2="206.77" stroke="#dc2626" stroke-width="1.4"/>
<rect x="226.92" y="165.86" width="18.00" height="28.14" fill="#dc2626" opacity="0.85"/>
<line x1="274.90" y1="177.77" x2="274.90" y2="245.75" stroke="#dc2626" stroke-width="1.4"/>
<rect x="265.90" y="193.99" width="18.00" height="21.42" fill="#dc2626" opacity="0.85"/>
<line x1="313.88" y1="207.13" x2="313.88" y2="258.68" stroke="#dc2626" stroke-width="1.4"/>
<rect x="304.88" y="215.39" width="18.00" height="9.69" fill="#dc2626" opacity="0.85"/>
<line x1="352.86" y1="208.37" x2="352.86" y2="252.37" stroke="#dc2626" stroke-width="1.4"/>
<rect x="343.86" y="225.08" width="18.00" height="12.99" fill="#dc2626" opacity="0.85"/>
<line x1="391.84" y1="225.96" x2="391.84" y2="258.01" stroke="#dc2626" stroke-width="1.4"/>
<rect x="382.84" y="238.07" width="18.00" height="5.73" fill="#dc2626" opacity="0.85"/>
<line x1="430.82" y1="169.60" x2="430.82" y2="245.75" stroke="#16a34a" stroke-width="1.4"/>
<rect x="421.82" y="182.95" width="18.00" height="61.56" fill="#16a34a" opacity="0.85"/>
<line x1="469.80" y1="164.29" x2="469.80" y2="188.07" stroke="#16a34a" stroke-width="1.4"/>
<rect x="460.80" y="180.34" width="18.00" height="2.59" fill="#16a34a" opacity="0.85"/>
<line x1="508.78" y1="164.29" x2="508.78" y2="194.04" stroke="#dc2626" stroke-width="1.4"/>
<rect x="499.78" y="180.32" width="18.00" height="10.44" fill="#dc2626" opacity="0.85"/>
<line x1="547.76" y1="184.39" x2="547.76" y2="223.12" stroke="#dc2626" stroke-width="1.4"/>
<rect x="538.76" y="190.74" width="18.00" height="7.28" fill="#dc2626" opacity="0.85"/>
<line x1="586.73" y1="183.25" x2="586.73" y2="232.36" stroke="#dc2626" stroke-width="1.4"/>
<rect x="577.73" y="198.02" width="18.00" height="3.94" fill="#dc2626" opacity="0.85"/>
<line x1="625.71" y1="196.39" x2="625.71" y2="231.48" stroke="#dc2626" stroke-width="1.4"/>
<rect x="616.71" y="201.93" width="18.00" height="28.03" fill="#dc2626" opacity="0.85"/>
<line x1="664.69" y1="216.80" x2="664.69" y2="240.68" stroke="#dc2626" stroke-width="1.4"/>
<rect x="655.69" y="229.77" width="18.00" height="1.93" fill="#dc2626" opacity="0.85"/>
<line x1="703.67" y1="209.23" x2="703.67" y2="258.12" stroke="#16a34a" stroke-width="1.4"/>
<rect x="694.67" y="213.94" width="18.00" height="17.74" fill="#16a34a" opacity="0.85"/>
<line x1="742.65" y1="205.08" x2="742.65" y2="226.88" stroke="#dc2626" stroke-width="1.4"/>
<rect x="733.65" y="213.91" width="18.00" height="8.71" fill="#dc2626" opacity="0.85"/>
<line x1="781.63" y1="216.91" x2="781.63" y2="246.80" stroke="#dc2626" stroke-width="1.4"/>
<rect x="772.63" y="222.60" width="18.00" height="11.02" fill="#dc2626" opacity="0.85"/>
<line x1="820.61" y1="215.05" x2="820.61" y2="237.04" stroke="#16a34a" stroke-width="1.4"/>
<rect x="811.61" y="219.54" width="18.00" height="14.08" fill="#16a34a" opacity="0.85"/>
<line x1="859.59" y1="216.33" x2="859.59" y2="254.72" stroke="#dc2626" stroke-width="1.4"/>
<rect x="850.59" y="219.54" width="18.00" height="24.69" fill="#dc2626" opacity="0.85"/>
<line x1="898.57" y1="239.38" x2="898.57" y2="270.47" stroke="#dc2626" stroke-width="1.4"/>
<rect x="889.57" y="244.26" width="18.00" height="10.72" fill="#dc2626" opacity="0.85"/>
<line x1="937.55" y1="254.95" x2="937.55" y2="290.32" stroke="#dc2626" stroke-width="1.4"/>
<rect x="928.55" y="254.95" width="18.00" height="30.56" fill="#dc2626" opacity="0.85"/>
<line x1="976.53" y1="267.00" x2="976.53" y2="310.39" stroke="#16a34a" stroke-width="1.4"/>
<rect x="967.53" y="282.71" width="18.00" height="2.82" fill="#16a34a" opacity="0.85"/>
<line x1="1015.51" y1="257.33" x2="1015.51" y2="302.31" stroke="#16a34a" stroke-width="1.4"/>
<rect x="1006.51" y="258.61" width="18.00" height="24.07" fill="#16a34a" opacity="0.85"/>
<line x1="1054.49" y1="257.05" x2="1054.49" y2="318.16" stroke="#dc2626" stroke-width="1.4"/>
<rect x="1045.49" y="258.61" width="18.00" height="41.23" fill="#dc2626" opacity="0.85"/>
<line x1="1093.47" y1="299.87" x2="1093.47" y2="395.38" stroke="#dc2626" stroke-width="1.4"/>
<rect x="1084.47" y="299.87" width="18.00" height="65.30" fill="#dc2626" opacity="0.85"/>
<line x1="1132.45" y1="326.61" x2="1132.45" y2="377.69" stroke="#16a34a" stroke-width="1.4"/>
<rect x="1123.45" y="331.81" width="18.00" height="32.31" fill="#16a34a" opacity="0.85"/>
<line x1="1171.43" y1="329.65" x2="1171.43" y2="381.28" stroke="#dc2626" stroke-width="1.4"/>
<rect x="1162.43" y="331.83" width="18.00" height="25.03" fill="#dc2626" opacity="0.85"/>
<line x1="1210.41" y1="347.52" x2="1210.41" y2="382.40" stroke="#dc2626" stroke-width="1.4"/>
<rect x="1201.41" y="356.87" width="18.00" height="11.64" fill="#dc2626" opacity="0.85"/>
<line x1="1249.39" y1="340.18" x2="1249.39" y2="376.75" stroke="#16a34a" stroke-width="1.4"/>
<rect x="1240.39" y="365.49" width="18.00" height="3.02" fill="#16a34a" opacity="0.85"/>
<line x1="1288.37" y1="349.81" x2="1288.37" y2="377.00" stroke="#dc2626" stroke-width="1.4"/>
<rect x="1279.37" y="365.47" width="18.00" height="6.12" fill="#dc2626" opacity="0.85"/>
<line x1="1327.35" y1="336.56" x2="1327.35" y2="388.97" stroke="#16a34a" stroke-width="1.4"/>
<rect x="1318.35" y="337.61" width="18.00" height="33.40" fill="#16a34a" opacity="0.85"/>
<line x1="1366.33" y1="334.00" x2="1366.33" y2="386.06" stroke="#dc2626" stroke-width="1.4"/>
<rect x="1357.33" y="337.61" width="18.00" height="34.19" fill="#dc2626" opacity="0.85"/>
<line x1="1405.31" y1="357.73" x2="1405.31" y2="384.13" stroke="#dc2626" stroke-width="1.4"/>
<rect x="1396.31" y="371.83" width="18.00" height="2.78" fill="#dc2626" opacity="0.85"/>
<line x1="1444.29" y1="374.61" x2="1444.29" y2="414.64" stroke="#dc2626" stroke-width="1.4"/>
<rect x="1435.29" y="374.63" width="18.00" height="27.17" fill="#dc2626" opacity="0.85"/>
<line x1="1483.27" y1="357.02" x2="1483.27" y2="436.10" stroke="#16a34a" stroke-width="1.4"/>
<rect x="1474.27" y="368.79" width="18.00" height="33.02" fill="#16a34a" opacity="0.85"/>
<line x1="1522.24" y1="350.45" x2="1522.24" y2="371.51" stroke="#16a34a" stroke-width="1.4"/>
<rect x="1513.24" y="353.72" width="18.00" height="15.06" fill="#16a34a" opacity="0.85"/>
<line x1="1561.22" y1="346.17" x2="1561.22" y2="364.53" stroke="#16a34a" stroke-width="1.4"/>
<rect x="1552.22" y="351.93" width="18.00" height="1.78" fill="#16a34a" opacity="0.85"/>
<line x1="1600.20" y1="329.48" x2="1600.20" y2="367.57" stroke="#16a34a" stroke-width="1.4"/>
<rect x="1591.20" y="330.32" width="18.00" height="21.57" fill="#16a34a" opacity="0.85"/>
<line x1="1639.18" y1="318.20" x2="1639.18" y2="346.17" stroke="#dc2626" stroke-width="1.4"/>
<rect x="1630.18" y="330.29" width="18.00" height="13.63" fill="#dc2626" opacity="0.85"/>
<line x1="1678.16" y1="307.06" x2="1678.16" y2="344.03" stroke="#16a34a" stroke-width="1.4"/>
<rect x="1669.16" y="311.08" width="18.00" height="32.87" fill="#16a34a" opacity="0.85"/>
<line x1="1717.14" y1="311.10" x2="1717.14" y2="339.75" stroke="#dc2626" stroke-width="1.4"/>
<rect x="1708.14" y="311.10" width="18.00" height="27.71" fill="#dc2626" opacity="0.85"/>
<line x1="1756.12" y1="325.22" x2="1756.12" y2="356.87" stroke="#16a34a" stroke-width="1.4"/>
<rect x="1747.12" y="329.95" width="18.00" height="8.88" fill="#16a34a" opacity="0.85"/>
<line x1="1795.10" y1="319.68" x2="1795.10" y2="360.81" stroke="#dc2626" stroke-width="1.4"/>
<rect x="1786.10" y="329.93" width="18.00" height="14.10" fill="#dc2626" opacity="0.85"/>
<line x1="1834.08" y1="336.20" x2="1834.08" y2="355.35" stroke="#16a34a" stroke-width="1.4"/>
<rect x="1825.08" y="343.88" width="18.00" height="1.00" fill="#16a34a" opacity="0.85"/>
<line x1="1873.06" y1="317.26" x2="1873.06" y2="348.29" stroke="#16a34a" stroke-width="1.4"/>
<rect x="1864.06" y="325.35" width="18.00" height="18.53" fill="#16a34a" opacity="0.85"/>
<line x1="1912.04" y1="288.57" x2="1912.04" y2="325.46" stroke="#16a34a" stroke-width="1.4"/>
<rect x="1903.04" y="308.70" width="18.00" height="16.67" fill="#16a34a" opacity="0.85"/>
<line x1="1951.02" y1="305.94" x2="1951.02" y2="341.96" stroke="#dc2626" stroke-width="1.4"/>
<rect x="1942.02" y="308.73" width="18.00" height="24.46" fill="#dc2626" opacity="0.85"/>
<line x1="1990.00" y1="280.74" x2="1990.00" y2="335.47" stroke="#16a34a" stroke-width="1.4"/>
<rect x="1981.00" y="298.28" width="18.00" height="34.90" fill="#16a34a" opacity="0.85"/>
<line x1="80" y1="337.61" x2="1990" y2="337.61" stroke="#0f766e" stroke-width="1.5" stroke-dasharray="6 4"/>
<text x="1998" y="341.61" font-family="Arial" font-size="11" fill="#0f766e">entry 67390.00</text>
<line x1="80" y1="557.45" x2="1990" y2="557.45" stroke="#dc2626" stroke-width="1.5" stroke-dasharray="6 4"/>
<text x="1998" y="561.45" font-family="Arial" font-size="11" fill="#dc2626">stop 66362.60</text>
<line x1="80" y1="117.78" x2="1990" y2="117.78" stroke="#16a34a" stroke-width="1.5" stroke-dasharray="6 4"/>
<text x="1998" y="121.78" font-family="Arial" font-size="11" fill="#16a34a">target 68417.40</text>
<line x1="703.67" y1="64" x2="703.67" y2="594" stroke="#64748b" stroke-width="1" stroke-dasharray="2 4" opacity="0.55" data-event-marker="trend"/>
<text x="707.67" y="78" font-family="Arial" font-size="10" fill="#64748b" data-event-marker="trend">trend</text>
<line x1="80.00" y1="64" x2="80.00" y2="594" stroke="#7c3aed" stroke-width="1" stroke-dasharray="2 4" opacity="0.55" data-event-marker="breakout"/>
<text x="84.00" y="78" font-family="Arial" font-size="10" fill="#7c3aed" data-event-marker="breakout">breakout</text>
<line x1="1327.35" y1="64" x2="1327.35" y2="594" stroke="#2563eb" stroke-width="1" stroke-dasharray="2 4" opacity="0.55" data-event-marker="pullback"/>
<text x="1331.35" y="78" font-family="Arial" font-size="10" fill="#2563eb" data-event-marker="pullback">pullback</text>
<line x1="1366.33" y1="64" x2="1366.33" y2="594" stroke="#0f766e" stroke-width="1" stroke-dasharray="2 4" opacity="0.55" data-event-marker="confirm"/>
<text x="1370.33" y="78" font-family="Arial" font-size="10" fill="#0f766e" data-event-marker="confirm">confirm</text>
<line x1="1366.33" y1="64" x2="1366.33" y2="594" stroke="#0f766e" stroke-width="1" stroke-dasharray="2 4" opacity="0.55" data-event-marker="signal"/>
<text x="1370.33" y="78" font-family="Arial" font-size="10" fill="#0f766e" data-event-marker="signal">signal</text>
<polygon points="1405.31,388.38 1399.01,399.18 1411.61,399.18" fill="#16a34a" stroke="#ffffff" stroke-width="1.2" data-trade-marker="entry"/>
<text x="80.00" y="636" text-anchor="middle" font-family="Arial" font-size="10" fill="#64748b">2024-07-22 00:00 UTC</text>
<text x="547.76" y="636" text-anchor="middle" font-family="Arial" font-size="10" fill="#64748b">2024-07-22 03:00 UTC</text>
<text x="1054.49" y="636" text-anchor="middle" font-family="Arial" font-size="10" fill="#64748b">2024-07-22 06:15 UTC</text>
<text x="1522.24" y="636" text-anchor="middle" font-family="Arial" font-size="10" fill="#64748b">2024-07-22 09:15 UTC</text>
<text x="1990.00" y="636" text-anchor="middle" font-family="Arial" font-size="10" fill="#64748b">2024-07-22 12:15 UTC</text>
<text x="2014" y="64" font-family="Arial" font-size="14" font-weight="700" fill="#111827">Trade</text>
<text x="2014" y="88" font-family="Arial" font-size="12" fill="#334155">candidate: BTC-USDT-SWAP:1721606400000:long:strict_shallow_pullback_v2_balanced</text>
<text x="2014" y="112" font-family="Arial" font-size="12" fill="#334155">trade: </text>
<text x="2014" y="136" font-family="Arial" font-size="12" fill="#334155">side: LONG</text>
<text x="2014" y="160" font-family="Arial" font-size="12" fill="#334155">exit: </text>
<text x="2014" y="184" font-family="Arial" font-size="12" fill="#334155">net_R: n/a</text>
<text x="2014" y="208" font-family="Arial" font-size="12" fill="#334155">MFE_R: n/a</text>
<text x="2014" y="232" font-family="Arial" font-size="12" fill="#334155">MAE_R: n/a</text>
</svg>