<svg xmlns="http://www.w3.org/2000/svg" width="2240" height="680" viewBox="0 0 2240 680">
<rect width="100%" height="100%" fill="#f8fafc"/>
<text x="80" y="30" font-family="Arial" font-size="18" font-weight="700" fill="#111827">4H lifecycle | BTC-USDT-SWAP:1729022400000:long:strict_shallow_pullback_v2_balanced</text>
<text x="80" y="52" font-family="Arial" font-size="12" fill="#475569">LONG | signal=2024-10-16 05:30 UTC | entry=2024-10-16 05:45 UTC | exit=n/a | </text>
<rect x="80" y="64" width="1910" height="530" fill="#ffffff" stroke="#cbd5e1"/>
<rect x="80" y="245.71" width="1910" height="8.00" fill="#dbeafe" opacity="0.65" data-zone-band="true"/>
<line x1="80" y1="594.00" x2="1990" y2="594.00" stroke="#e2e8f0"/>
<text x="72" y="598.00" text-anchor="end" font-family="Arial" font-size="11" fill="#64748b">61979.39</text>
<line x1="80" y1="488.00" x2="1990" y2="488.00" stroke="#e2e8f0"/>
<text x="72" y="492.00" text-anchor="end" font-family="Arial" font-size="11" fill="#64748b">63365.62</text>
<line x1="80" y1="382.00" x2="1990" y2="382.00" stroke="#e2e8f0"/>
<text x="72" y="386.00" text-anchor="end" font-family="Arial" font-size="11" fill="#64748b">64751.84</text>
<line x1="80" y1="276.00" x2="1990" y2="276.00" stroke="#e2e8f0"/>
<text x="72" y="280.00" text-anchor="end" font-family="Arial" font-size="11" fill="#64748b">66138.06</text>
<line x1="80" y1="170.00" x2="1990" y2="170.00" stroke="#e2e8f0"/>
<text x="72" y="174.00" text-anchor="end" font-family="Arial" font-size="11" fill="#64748b">67524.28</text>
<line x1="80" y1="64.00" x2="1990" y2="64.00" stroke="#e2e8f0"/>
<text x="72" y="68.00" text-anchor="end" font-family="Arial" font-size="11" fill="#64748b">68910.51</text>
<line x1="80.00" y1="504.95" x2="80.00" y2="545.50" stroke="#16a34a" stroke-width="1.4"/>
<rect x="71.00" y="525.29" width="18.00" height="10.71" fill="#16a34a" opacity="0.85"/>
<line x1="186.11" y1="408.90" x2="186.11" y2="557.45" stroke="#16a34a" stroke-width="1.4"/>
<rect x="177.11" y="415.40" width="18.00" height="109.91" fill="#16a34a" opacity="0.85"/>
<line x1="292.22" y1="385.42" x2="292.22" y2="456.53" stroke="#16a34a" stroke-width="1.4"/>
<rect x="283.22" y="392.08" width="18.00" height="23.31" fill="#16a34a" opacity="0.85"/>
<line x1="398.33" y1="348.42" x2="398.33" y2="412.97" stroke="#16a34a" stroke-width="1.4"/>
<rect x="389.33" y="368.77" width="18.00" height="23.31" fill="#16a34a" opacity="0.85"/>
<line x1="504.44" y1="262.62" x2="504.44" y2="389.18" stroke="#16a34a" stroke-width="1.4"/>
<rect x="495.44" y="294.75" width="18.00" height="74.02" fill="#16a34a" opacity="0.85"/>
<line x1="610.56" y1="279.94" x2="610.56" y2="319.32" stroke="#16a34a" stroke-width="1.4"/>
<rect x="601.56" y="291.34" width="18.00" height="3.42" fill="#16a34a" opacity="0.85"/>
<line x1="716.67" y1="234.56" x2="716.67" y2="306.28" stroke="#16a34a" stroke-width="1.4"/>
<rect x="707.67" y="279.07" width="18.00" height="12.26" fill="#16a34a" opacity="0.85"/>
<line x1="822.78" y1="259.93" x2="822.78" y2="335.88" stroke="#dc2626" stroke-width="1.4"/>
<rect x="813.78" y="279.07" width="18.00" height="51.57" fill="#dc2626" opacity="0.85"/>
<line x1="928.89" y1="297.19" x2="928.89" y2="344.95" stroke="#16a34a" stroke-width="1.4"/>
<rect x="919.89" y="312.03" width="18.00" height="18.61" fill="#16a34a" opacity="0.85"/>
<line x1="1035.00" y1="296.64" x2="1035.00" y2="341.61" stroke="#dc2626" stroke-width="1.4"/>
<rect x="1026.00" y="312.03" width="18.00" height="20.12" fill="#dc2626" opacity="0.85"/>
<line x1="1141.11" y1="134.39" x2="1141.11" y2="380.99" stroke="#16a34a" stroke-width="1.4"/>
<rect x="1132.11" y="284.83" width="18.00" height="47.33" fill="#16a34a" opacity="0.85"/>
<line x1="1247.22" y1="179.95" x2="1247.22" y2="288.15" stroke="#16a34a" stroke-width="1.4"/>
<rect x="1238.22" y="212.08" width="18.00" height="72.74" fill="#16a34a" opacity="0.85"/>
<line x1="1353.33" y1="195.14" x2="1353.33" y2="276.97" stroke="#16a34a" stroke-width="1.4"/>
<rect x="1344.33" y="203.74" width="18.00" height="8.33" fill="#16a34a" opacity="0.85"/>
<line x1="1459.44" y1="165.90" x2="1459.44" y2="228.37" stroke="#16a34a" stroke-width="1.4"/>
<rect x="1450.44" y="202.06" width="18.00" height="1.69" fill="#16a34a" opacity="0.85"/>
<line x1="1565.56" y1="182.46" x2="1565.56" y2="228.41" stroke="#dc2626" stroke-width="1.4"/>
<rect x="1556.56" y="202.20" width="18.00" height="9.96" fill="#dc2626" opacity="0.85"/>
<line x1="1671.67" y1="100.55" x2="1671.67" y2="216.80" stroke="#16a34a" stroke-width="1.4"/>
<rect x="1662.67" y="140.61" width="18.00" height="71.55" fill="#16a34a" opacity="0.85"/>
<line x1="1777.78" y1="108.47" x2="1777.78" y2="200.00" stroke="#dc2626" stroke-width="1.4"/>
<rect x="1768.78" y="140.61" width="18.00" height="11.12" fill="#dc2626" opacity="0.85"/>
<line x1="1883.89" y1="125.14" x2="1883.89" y2="172.77" stroke="#dc2626" stroke-width="1.4"/>
<rect x="1874.89" y="151.72" width="18.00" height="2.76" fill="#dc2626" opacity="0.85"/>
<line x1="1990.00" y1="135.70" x2="1990.00" y2="171.55" stroke="#dc2626" stroke-width="1.4"/>
<rect x="1981.00" y="154.49" width="18.00" height="8.05" fill="#dc2626" opacity="0.85"/>
<line x1="80" y1="195.73" x2="1990" y2="195.73" stroke="#0f766e" stroke-width="1.5" stroke-dasharray="6 4"/>
<text x="1998" y="199.73" font-family="Arial" font-size="11" fill="#0f766e">entry 67187.80</text>
<line x1="80" y1="261.88" x2="1990" y2="261.88" stroke="#dc2626" stroke-width="1.5" stroke-dasharray="6 4"/>
<text x="1998" y="265.88" font-family="Arial" font-size="11" fill="#dc2626">stop 66322.77</text>
<line x1="80" y1="129.58" x2="1990" y2="129.58" stroke="#16a34a" stroke-width="1.5" stroke-dasharray="6 4"/>
<text x="1998" y="133.58" font-family="Arial" font-size="11" fill="#16a34a">target 68052.83</text>
<line x1="1459.44" y1="64" x2="1459.44" y2="594" stroke="#64748b" stroke-width="1" stroke-dasharray="2 4" opacity="0.55" data-event-marker="trend"/>
<text x="1463.44" y="78" font-family="Arial" font-size="10" fill="#64748b" data-event-marker="trend">trend</text>
<line x1="1353.33" y1="64" x2="1353.33" y2="594" stroke="#7c3aed" stroke-width="1" stroke-dasharray="2 4" opacity="0.55" data-event-marker="breakout"/>
<text x="1357.33" y="78" font-family="Arial" font-size="10" fill="#7c3aed" data-event-marker="breakout">breakout</text>
<line x1="1565.56" y1="64" x2="1565.56" y2="594" stroke="#2563eb" stroke-width="1" stroke-dasharray="2 4" opacity="0.55" data-event-marker="pullback"/>
<text x="1569.56" y="78" font-family="Arial" font-size="10" fill="#2563eb" data-event-marker="pullback">pullback</text>
<line x1="1565.56" y1="64" x2="1565.56" y2="594" stroke="#0f766e" stroke-width="1" stroke-dasharray="2 4" opacity="0.55" data-event-marker="confirm"/>
<text x="1569.56" y="78" font-family="Arial" font-size="10" fill="#0f766e" data-event-marker="confirm">confirm</text>
<line x1="1565.56" y1="64" x2="1565.56" y2="594" stroke="#0f766e" stroke-width="1" stroke-dasharray="2 4" opacity="0.55" data-event-marker="signal"/>
<text x="1569.56" y="78" font-family="Arial" font-size="10" fill="#0f766e" data-event-marker="signal">signal</text>
<polygon points="1565.56,232.66 1559.26,243.46 1571.86,243.46" fill="#16a34a" stroke="#ffffff" stroke-width="1.2" data-trade-marker="entry"/>
<text x="80.00" y="636" text-anchor="middle" font-family="Arial" font-size="10" fill="#64748b">2024-10-13 20:00 UTC</text>
<text x="504.44" y="636" text-anchor="middle" font-family="Arial" font-size="10" fill="#64748b">2024-10-14 12:00 UTC</text>
<text x="1035.00" y="636" text-anchor="middle" font-family="Arial" font-size="10" fill="#64748b">2024-10-15 08:00 UTC</text>
<text x="1565.56" y="636" text-anchor="middle" font-family="Arial" font-size="10" fill="#64748b">2024-10-16 04:00 UTC</text>
<text x="1990.00" y="636" text-anchor="middle" font-family="Arial" font-size="10" fill="#64748b">2024-10-16 20:00 UTC</text>
<text x="2014" y="64" font-family="Arial" font-size="14" font-weight="700" fill="#111827">Trade</text>
<text x="2014" y="88" font-family="Arial" font-size="12" fill="#334155">candidate: BTC-USDT-SWAP:1729022400000:long:strict_shallow_pullback_v2_balanced</text>
<text x="2014" y="112" font-family="Arial" font-size="12" fill="#334155">trade: </text>
<text x="2014" y="136" font-family="Arial" font-size="12" fill="#334155">side: LONG</text>
<text x="2014" y="160" font-family="Arial" font-size="12" fill="#334155">exit: </text>
<text x="2014" y="184" font-family="Arial" font-size="12" fill="#334155">net_R: n/a</text>
<text x="2014" y="208" font-family="Arial" font-size="12" fill="#334155">MFE_R: n/a</text>
<text x="2014" y="232" font-family="Arial" font-size="12" fill="#334155">MAE_R: n/a</text>
</svg>